# xmcd CD database file
#
# Track frame offsets:
#	150
#	19253
#	43947
#	60120
#	83300
#	104280
#	122220
#	141940
#	161758
#	177315
#	198155
#	224303
#	245299
#
# Disc length: 3579 seconds
#
# Revision: 3
# Processed by: cddbd v1.5.2PL0 Copyright (c) Steve Scherf et al.
# Submitted via: CDex 1.70beta3
#
DISCID=ab0df90d
DTITLE=DEAD END - ZERO [+2]
DYEAR=1989
DGENRE=Metal
TTITLE0=I WANT YOUR LOVE
TTITLE1=SLEEP IN THE SKY
TTITLE2=BABY BLUE
TTITLE3=SO SWEET SO LONELY
TTITLE4=CRASH 49
TTITLE5=TRICKSTER
TTITLE6=HYPER DESIRE
TTITLE7=PROMISED LAND
TTITLE8=I SPY
TTITLE9=I'M IN A COMA
TTITLE10=SERAFINE
TTITLE11=Good Morning Satelite [Bonus Track]
TTITLE12=原始のかけら [Bonus Track]
EXTD=YEAR: 1989
EXTT0=
EXTT1=
EXTT2=
EXTT3=
EXTT4=
EXTT5=
EXTT6=
EXTT7=
EXTT8=
EXTT9=
EXTT10=
EXTT11=
EXTT12=
PLAYORDER=
